<svg id="Layer_1" data-name="Layer 1" xmlns="http://www.w3.org/2000/svg" xmlns:xlink="http://www.w3.org/1999/xlink" viewBox="0 0 668 187"><defs><style>.cls-1,.cls-2,.cls-4{fill:#333132;}.cls-1{clip-rule:evenodd;}.cls-2{fill-rule:evenodd;}.cls-3{clip-path:url(#clip-path);}</style><clipPath id="clip-path"><path class="cls-1" d="M58.6,87.12H68.94V97.46H58.6Zm-37,.08h32V97.69H33.06v10.49H77.39L93,92.55h66.17V90.76h8.29v8.3h-8.29V97.28h-7.26A66,66,0,0,1,31,117.65h13a33.45,33.45,0,0,0,3.37,3.87,55.1,55.1,0,0,0,40,17.14h.08a55.27,55.27,0,0,0,53.45-41.38H95L79.34,112.91H22v1.79H13.75v-8.3H22v1.78h4.21A66,66,0,0,1,21.55,87.2ZM37.19,67V62.81H33V67ZM27.05,56.75H52.72V67.24H43.14V77.73h68.6v4.74H16.14v1.78H7.84V76h8.3v1.78h5.54A65.76,65.76,0,0,1,27.05,56.75Zm5.15-9.46A66,66,0,0,1,153.4,83.08c0,1.59-.07,3.17-.19,4.73H142.5c.11-1.45.17-2.92.17-4.4a55.24,55.24,0,0,0-97-36.12H67.46l.69.69L83.09,62.92h47.66v4.73H81.13L80.44,67,65.5,52H21.83V53.8h-8.3V45.5h8.3v1.79Z"/></clipPath></defs><path class="cls-2" d="M58.6,87.12H68.94V97.46H58.6Zm-37,.08h32V97.69H33.06v10.49H77.39L93,92.55h66.17V90.76h8.29v8.3h-8.29V97.28h-7.26A66,66,0,0,1,31,117.65h13a33.45,33.45,0,0,0,3.37,3.87,55.1,55.1,0,0,0,40,17.14h.08a55.27,55.27,0,0,0,53.45-41.38H95L79.34,112.91H22v1.79H13.75v-8.3H22v1.78h4.21A66,66,0,0,1,21.55,87.2ZM37.19,67V62.81H33V67ZM27.05,56.75H52.72V67.24H43.14V77.73h68.6v4.74H16.14v1.78H7.84V76h8.3v1.78h5.54A65.76,65.76,0,0,1,27.05,56.75Zm5.15-9.46A66,66,0,0,1,153.4,83.08c0,1.59-.07,3.17-.19,4.73H142.5c.11-1.45.17-2.92.17-4.4a55.24,55.24,0,0,0-97-36.12H67.46l.69.69L83.09,62.92h47.66v4.73H81.13L80.44,67,65.5,52H21.83V53.8h-8.3V45.5h8.3v1.79Z"/><g class="cls-3"><rect class="cls-4" x="7.84" y="17.43" width="159.64" height="131.96"/></g><path class="cls-4" d="M154.3,164.64l-13.93-13.93a8.5,8.5,0,0,1,0-12h0a8.5,8.5,0,0,1,12,0l13.93,13.93a8.5,8.5,0,0,1,0,12h0A8.5,8.5,0,0,1,154.3,164.64Z"/><path class="cls-4" d="M202.36,66.37c0,3.78-3.18,7.51-9.09,7.51-4.91,0-8.53-2.38-9.3-6l3.65-1.34h0c.24,2.21,1.84,4.43,5.65,4.43,3.44,0,5.48-1.91,5.48-4.43,0-7.17-14.77-2.59-14.77-12.47,0-4.39,3.64-7.37,9.05-7.37,4.61,0,7.81,2.19,8.79,5.49l-3.65,1.34h0c-.23-1.79-2-3.81-5.29-3.85-2.94-.08-5.25,1.41-5.25,4.27C187.62,60.8,202.36,56.53,202.36,66.37Z"/><path class="cls-4" d="M235.15,55.77h-3.56V46.84h14.66L245.2,49.7h-10ZM246.28,70.6v.06l-1,2.81H231.59V58.58h13.28l-1.05,2.86h-8.67V70.6Z"/><path class="cls-4" d="M296.89,73.47h-3.78l-8.2-22.3-8.2,22.3h-3.78l9.93-26.59H287Zm-9.2-7.77,1,2.83h-7.64l1-2.83Z"/><path class="cls-4" d="M334.07,62.36h-5.25V73.47h-3.57V46.88h8.82c6.43,0,9.45,3.43,9.45,7.78C343.52,58.7,340.85,62.36,334.07,62.36Zm5.8-7.7c0-3.09-1.72-4.92-5.8-4.92h-5.25V59.5h5.25C338.15,59.5,339.87,57.63,339.87,54.66Zm4,18.81h-4.27l-4.83-8.06h4.14Z"/><path class="cls-4" d="M394.25,66.08l3.32,1.34c-2.3,4.16-6.63,6.46-11.94,6.46A13.22,13.22,0,0,1,372,60.34a13.29,13.29,0,0,1,13.64-13.62c5.37,0,9.73,2.39,12,6.67L394,54.73c-1.5-3.18-4.39-5-8.37-5-5.72,0-10,4-10,10.57s4.27,10.53,10,10.53C389.56,70.87,392.74,69.14,394.25,66.08Z"/><path class="cls-4" d="M430.24,58.55h11.13l-1.06,2.86H430.24V73.47h-3.56V46.88h3.56Zm13.91,14.92V46.88h3.57V73.47Z"/><path class="cls-4" d="M183.55,89.06V83.93h33.59v5.13Zm13.59,7.59,6.48-2.39v38h-6.48Z"/><path class="cls-4" d="M232.19,100.08h-6.48V83.86h26.63l-1.91,5.2H232.19ZM252.4,127v.11l-1.87,5.09H225.71v-27h24.13l-1.91,5.2H232.19V127Z"/><path class="cls-4" d="M300.76,118.8l6,2.43c-4.18,7.56-12.05,11.75-21.69,11.75-13.87,0-24.76-10.12-24.76-24.6s10.89-24.73,24.76-24.73c9.74,0,17.67,4.33,21.83,12.11L300.3,98.2c-2.71-5.78-8-9-15.19-9-10.39,0-18.14,7.35-18.14,19.19s7.75,19.13,18.14,19.13C292.24,127.51,298,124.36,300.76,118.8Z"/><path class="cls-4" d="M324.37,105.13h20.2l-1.91,5.2H324.37v21.89h-6.48V83.93h6.48Zm25.26,27.09V83.93h6.48v48.29Z"/><path class="cls-4" d="M376.6,83.86l20.92,30.83v10L376.6,93.77v38.45h-6.47V83.86Zm32.52,0v48.36h-6.47l0,0,0-48.34Z"/><path class="cls-4" d="M427.53,108.38c0,10.05,5.69,16.92,13.85,18.72l2.16,5.86c-12.85-1.05-22.63-10.89-22.63-24.58s9.81-23.55,22.69-24.57l-2.15,5.84C433.25,91.42,427.53,98.26,427.53,108.38Zm43.19,0c0,13.48-9.42,23.23-22,24.52l2.19-6c7.82-2,13.23-8.78,13.23-18.57s-5.44-16.61-13.3-18.58l-2.18-5.94C461.27,85.13,470.72,94.89,470.72,108.38Z"/><path class="cls-4" d="M506.28,127.09l-1.89,5.13H482.53V83.93H489v43.16Z"/><path class="cls-4" d="M516.26,108.38c0,10.05,5.69,16.92,13.86,18.72l2.15,5.86c-12.84-1.05-22.63-10.89-22.63-24.58s9.82-23.55,22.69-24.57l-2.15,5.84C522,91.42,516.26,98.26,516.26,108.38Zm43.2,0c0,13.48-9.43,23.23-22,24.52l2.19-6c7.83-2,13.23-8.78,13.23-18.57s-5.43-16.61-13.29-18.58l-2.19-5.94C550,85.13,559.46,94.89,559.46,108.38Z"/><path class="cls-4" d="M618.23,106.51v4.85c-1.14,12-10.89,21.62-24.34,21.62-13.95,0-24.91-10.12-24.91-24.6s11-24.66,24.91-24.66a25.5,25.5,0,0,1,15.62,5l-2.43,6.58c-3-3.74-7.58-5.85-13.19-5.85-10.46,0-18.29,7.35-18.29,19s7.83,18.92,18.29,18.92c9.75,0,16.44-6.1,17.43-15.66H593.57l1.89-5.13Z"/><path class="cls-4" d="M626.75,83.93l15.51,31v17.29h-6.47V114L619.56,83.93Zm31.66,0-13.43,25-3.13-6.27,9.38-18.73Z"/></svg>